<svg xmlns="http://www.w3.org/2000/svg" width="43.992" height="44.001" viewBox="0 0 43.992 44.001">
  <path id="Jquery" d="M29.867,3.008a1.129,1.129,0,0,0-.312.094,7.6,7.6,0,0,0-2.024,1.941A8.965,8.965,0,0,0,26,9.988a9.875,9.875,0,0,0,.77,3.89,12,12,0,0,0,6.761,6.481l.375.133c.016.008.164.055.188.059l.11.039a4.559,4.559,0,0,0,.472.133A13.875,13.875,0,0,0,36.969,21c.125,0,.25,0,.375,0a9.005,9.005,0,0,0,8.312-5.156,3.28,3.28,0,0,1,.168-.29s0,0,0-.007a1,1,0,0,0-1.652-1.125h0c-1.461,2.152-3.961,2.8-7.426,1.945a7.132,7.132,0,0,1-.789-.254,9.557,9.557,0,0,1-.96-.4,10.07,10.07,0,0,1-1.692-1.059c-3.047-2.363-4.239-7.28-2.457-10.12a1,1,0,0,0-.98-1.524ZM21.007,5a.979.979,0,0,0-.644.227,23.754,23.754,0,0,0-3.125,3.328.263.263,0,0,1-.027.043c-2.734,3.98-2.941,9.644-.523,14.43a17.935,17.935,0,0,0,1.265,2.144l.137.195a9.294,9.294,0,0,0,1.375,1.707c.191.219.4.43.6.633l.1.1.082.082c.207.2.418.4.637.6h0a.36.36,0,0,0,.058.059c.246.219.5.426.828.687l.09.067q.425.34.871.652c.094.063.188.121.282.188l.093.062.11.07c.2.133.394.254.672.415.18.109.37.218.5.28.054.032.113.063.25.137l.3.16.1.047c.2.1.406.2.613.293l.317.141c.207.09.418.176.675.274l.118.042c.007.008.1.043.113.047.187.067.379.133.57.2l.438.144a4.8,4.8,0,0,0,.75.207A24.161,24.161,0,0,0,32.578,33c.149,0,.3,0,.442,0a14.617,14.617,0,0,0,13.937-9.715,1,1,0,0,0-1.785-.844c-2.8,4.086-8.086,5.813-13.473,4.391-.25-.062-.492-.133-.793-.23q-.089-.028-.176-.063-.274-.085-.543-.187l-.277-.106c-.16-.062-.32-.125-.515-.21l-.13-.06c-.238-.1-.468-.214-.675-.316l-.57-.3a4.788,4.788,0,0,1-.418-.238l-.1-.055-.1-.058q-.216-.127-.422-.27l-.093-.058q-.048-.032-.094-.067l-.34-.218c-.242-.172-.48-.352-.758-.57l-.11-.09a16.073,16.073,0,0,1-5.378-7.758C19.379,13.27,20,9.727,21.863,6.5a1,1,0,0,0-.218-1.262A.985.985,0,0,0,21.008,5Zm-11,3a1.008,1.008,0,0,0-.672.258,21.948,21.948,0,0,0-3.5,4.191c-4.086,5.95-3.3,15.2-.492,20.848.054.117.113.23.172.344l.039.062a2.01,2.01,0,0,0,.129.254.968.968,0,0,0,.1.18c.047.1.094.183.18.332l.32.55.11.18c.062.1.129.207.2.313l.156.25c.047.074.094.14.125.18.156.242.313.484.485.714a.132.132,0,0,0,.023.028l.063.086c.14.2.285.4.414.558l.57.723c.008.008.07.082.074.09l.082.093c.172.211.356.422.54.625.027.032.054.059.081.09.176.192.356.383.543.582l.18.172c.148.156.3.309.453.453,0,0,.074.074.074.074l.156.145c.188.18.383.36.532.484.008.012.148.133.16.141.183.164.367.32.555.473l.957.757c.16.118.324.235.511.372.063.046.13.093.2.136a.672.672,0,0,0,.078.059l.719.48c.261.172.523.332.843.524l.172.1c.2.118.4.235.594.336.113.063.226.118.324.168.137.075.285.157.512.266q.466.236.945.445a1.029,1.029,0,0,0,.094.047q.489.209.984.406c.242.094.5.188.7.262l.145.059q.513.174,1.031.332l.2.062a7.064,7.064,0,0,0,.745.2A30.166,30.166,0,0,0,27,47h0c14.324,0,18.887-11.527,18.933-11.645a1,1,0,0,0-1.734-.96c-3.676,4.84-10.61,6.636-18.547,4.812q-.291-.072-.578-.16l-.375-.113q-.379-.118-.754-.25s-.117-.043-.117-.043c-.219-.075-.437-.16-.629-.235l-.219-.086c-.242-.1-.484-.2-.718-.3l-.137-.059c-.211-.1-.414-.191-.617-.293q-.095-.047-.192-.09c-.14-.07-.28-.144-.46-.242l-.817-.437a2.8,2.8,0,0,0-.25-.149c-.246-.152-.5-.305-.75-.465-.059-.035-.11-.074-.207-.14-.172-.11-.34-.223-.586-.4l-.1-.07c-.168-.117-.332-.242-.468-.344-.086-.062-.172-.133-.313-.238-.125-.1-.25-.192-.367-.285l-.219-.18c-.183-.149-.355-.305-.535-.457a.509.509,0,0,0-.07-.059c-.2-.183-.4-.367-.645-.6l-.707-.7q-.275-.28-.539-.57c-.18-.2-.351-.4-.582-.673l-.422-.515a2.671,2.671,0,0,0-.172-.227c-.144-.195-.289-.387-.433-.59-3.89-5.36-4.907-16.547-1.875-20.644A1,1,0,0,0,10,8Z" transform="translate(-3.006 -2.999)" fill="#fff"/>
</svg>
