<svg xmlns="http://www.w3.org/2000/svg" width="240" height="234" viewBox="0 0 240 234">
  <g id="グループ化_19" data-name="グループ化 19" transform="translate(-2920 -2496)">
    <rect id="長方形_5" data-name="長方形 5" width="240" height="234" rx="50" transform="translate(2920 2496)" fill="#fff" opacity="0.101"/>
    <g id="webdesign" transform="translate(2920 2496)">
      <path id="前面オブジェクトで型抜き_1" data-name="前面オブジェクトで型抜き 1" d="M-1164.5-2066h-155a42.308,42.308,0,0,1-16.555-3.336,42.3,42.3,0,0,1-13.508-9.1,42.305,42.305,0,0,1-9.1-13.508A42.312,42.312,0,0,1-1362-2108.5v-149a42.311,42.311,0,0,1,3.336-16.555,42.3,42.3,0,0,1,9.1-13.508,42.3,42.3,0,0,1,13.508-9.1A42.308,42.308,0,0,1-1319.5-2300h155a42.307,42.307,0,0,1,16.555,3.336,42.3,42.3,0,0,1,13.508,9.1,42.3,42.3,0,0,1,9.1,13.508A42.311,42.311,0,0,1-1122-2257.5v149a42.312,42.312,0,0,1-3.336,16.555,42.305,42.305,0,0,1-9.1,13.508,42.3,42.3,0,0,1-13.508,9.1A42.307,42.307,0,0,1-1164.5-2066Zm-151.2-224a35.947,35.947,0,0,0-14.109,2.859,36.288,36.288,0,0,0-11.541,7.791,36.288,36.288,0,0,0-7.791,11.541A35.941,35.941,0,0,0-1352-2253.7v141.4a35.941,35.941,0,0,0,2.859,14.109,36.286,36.286,0,0,0,7.791,11.541,36.288,36.288,0,0,0,11.541,7.791A35.943,35.943,0,0,0-1315.7-2076h147.4a35.9,35.9,0,0,0,14.118-2.865,36.138,36.138,0,0,0,11.535-7.812,36.118,36.118,0,0,0,7.75-11.565,35.962,35.962,0,0,0,2.8-14.157v-141.3a36.074,36.074,0,0,0-2.845-14.109,36.2,36.2,0,0,0-7.767-11.541,36.149,36.149,0,0,0-11.536-7.791A36.085,36.085,0,0,0-1168.4-2290Z" transform="translate(1362 2300)" fill="#fff"/>
      <path id="パス_118" data-name="パス 118" d="M94.9,109.5l28,53.8c.5.8.2,1.6-.6,1.6H104.9a1.962,1.962,0,0,1-2.1-1.3c-6.4-13.2-12.9-26.4-19.6-40.6H83c-6,13.4-12.6,27.5-19,40.7a1.92,1.92,0,0,1-1.8,1.1H45.7c-1,0-1.1-.8-.6-1.4l27.4-52.2L46,58.4a.808.808,0,0,1,.6-1.4H63.8a1.575,1.575,0,0,1,1.8,1.1c6.3,13.2,12.7,26.8,18.7,40.1h.2c5.8-13.2,12.2-26.9,18.4-40,.5-.8.8-1.3,1.8-1.3h16.1c.8,0,1.1.6.6,1.4Zm32.9,16.3c0-23.3,15.5-41.5,40.1-41.5a44.345,44.345,0,0,1,5.2.2V58a1,1,0,0,1,1-1h15.8c.8,0,1,.3,1,.8v91.8a71.228,71.228,0,0,0,.5,9.8c0,.6-.2.8-.8,1.1a59.567,59.567,0,0,1-25.6,5.8C143.3,166.4,127.8,153,127.8,125.8Zm45.3-25.6a15.123,15.123,0,0,0-5.8-1c-12.6,0-21.4,9.7-21.4,25.8,0,18.4,9,25.8,20.3,25.8a18.866,18.866,0,0,0,6.9-1.1Z" fill="#fff"/>
    </g>
  </g>
</svg>
