<svg xmlns="http://www.w3.org/2000/svg" width="457.559" height="518.117" viewBox="0 0 457.559 518.117">
  <g id="website" transform="translate(-26.721 3)">
    <path id="パス_112" data-name="パス 112" d="M255,512l185-52L481,0H30L71,460Z" fill="none" stroke="#fff" stroke-width="6"/>
    <path id="パス_113" data-name="パス 113" d="M256,472l149-41L440,37H256" fill="#fff" opacity="0.198"/>
    <path id="パス_114" data-name="パス 114" d="M256,208H181l-5-58h80V94H114l1,15,14,156H256Zm0,147h-1l-63-17-4-45H132l7,89,116,32h1Z" fill="#fff"/>
    <path id="パス_115" data-name="パス 115" d="M255,208v57h70l-7,73-63,17v59l116-32,1-10,13-149,2-15H255Zm0-114v56H392l1-12,3-29,1-15Z" fill="#fff"/>
  </g>
</svg>
