<svg xmlns="http://www.w3.org/2000/svg" width="5.555" height="5.555" viewBox="0 0 5.555 5.555">
  <g id="wordpress" transform="translate(-3.51 -1.668)">
    <path id="パス_8" data-name="パス 8" d="M6.288,2.058a2.379,2.379,0,0,1,1.616.63.392.392,0,0,0-.425.4c-.018.574.686.7.307,1.849l-.314.954L6.618,3.378c-.013-.039,0-.061.05-.061h.241a.023.023,0,0,0,.023-.024V3.15a.023.023,0,0,0-.023-.024q-.686.03-1.363,0a.023.023,0,0,0-.023.024v.143a.023.023,0,0,0,.023.024h.243c.054,0,.069.018.082.053l.351.959L5.694,5.923,4.826,3.367c-.011-.032,0-.051.033-.051h.277a.023.023,0,0,0,.023-.024V3.15a.023.023,0,0,0-.023-.024c-.29.015-.581.019-.853.021a2.386,2.386,0,0,1,2-1.09h0Zm2.1,1.251a2.39,2.39,0,0,1-.954,3.233l.745-2.11a3.33,3.33,0,0,0,.209-1.123h0ZM7.088,6.7a2.4,2.4,0,0,1-1.494.035l.736-2.109L7.088,6.7h0ZM5.266,6.605a2.39,2.39,0,0,1-1.152-3.15l1.152,3.15h0ZM6.288,1.833A2.612,2.612,0,1,1,3.675,4.446,2.613,2.613,0,0,1,6.288,1.833Zm0-.165A2.778,2.778,0,1,1,3.51,4.446,2.778,2.778,0,0,1,6.288,1.668Z" fill="#fff" fill-rule="evenodd"/>
  </g>
</svg>
